<?xml version="1.0" encoding="utf-8"?>
<svg viewBox="0 0 500 500" xmlns="http://www.w3.org/2000/svg">
  <circle style="fill: none; stroke: rgb(255, 255, 255); stroke-width: 33px;" cx="252.485" cy="245.056" r="221.516"/>
  <path style="fill: rgb(255, 255, 255);" d="M 157.079 123.892 C 157.079 123.892 225.291 122.072 250.522 157.167 C 275.753 192.262 275.344 232.909 275.344 232.909 L 232.122 199.243 C 232.122 199.243 244.237 196.048 254.618 198.192 C 264.999 200.337 236.579 184.093 231.714 184.093 C 226.848 184.093 241.797 173.653 251.212 178.467 C 260.627 183.281 223.792 161.524 196.293 165.645 C 168.793 169.765 203.086 146.409 203.086 146.409 C 203.086 146.409 156.66 160.331 135.873 185.698 C 115.086 211.064 108.497 209.676 118.224 216.969 C 127.95 224.261 126.766 241.858 120.769 243.223 C 114.773 244.589 114.271 232.226 109.492 216.278 C 104.713 200.329 98.221 206.754 98.221 206.754 C 98.221 206.754 107.404 238.408 103.839 257.031 C 100.275 275.654 106.849 309.486 117.121 309.486 C 127.392 309.486 138.639 304.417 138.639 304.417 C 138.639 304.417 119.263 295.231 131.79 295.484 C 144.317 295.737 120.489 288.231 125.212 287.98 C 129.934 287.728 144.69 285.651 140.308 269.068 C 135.926 252.485 142.06 211.387 150.822 217.049 C 159.583 222.71 141.239 247.954 148.37 261.48 C 155.502 275.007 167.194 291.46 158.203 296.262 C 149.212 301.063 161.466 303.39 161.466 303.39 L 150.081 307.064 C 150.081 307.064 164.398 320.177 181.621 315.298 C 198.843 310.42 169.447 305.707 173.331 295.799 C 177.216 285.891 198.04 265.515 198.04 265.515 C 198.04 265.515 176.089 264.165 177.229 253.501 C 178.369 242.838 170.783 225.627 189.146 229.928 C 207.508 234.229 211.916 269.077 211.916 269.077 C 211.916 269.077 213.507 243.1 206.666 236.906 C 199.825 230.712 245.481 257.013 230.001 293.317 C 214.521 329.622 177.176 336.621 146.303 332.502 C 115.43 328.383 95.27 314.785 95.27 314.785 C 95.27 314.785 101.547 349.652 158.778 353.593 C 216.01 357.534 171.46 374.605 158.816 375.855 C 146.171 377.105 126.156 381.256 126.156 381.256 C 126.156 381.256 161.218 405.225 211.098 373.22 C 260.978 341.215 276.037 312.301 282.795 324.803 C 289.554 337.304 264.89 374.124 254.613 377.61 C 244.336 381.096 287.469 374.514 296.233 357.628 C 304.997 340.742 312.184 331.329 312.184 331.329 C 312.184 331.329 334.293 361.713 351.757 363.692 C 369.222 365.67 373.811 365.479 373.811 365.479 C 373.811 365.479 334.612 336.359 325.285 317.575 C 315.957 298.79 312.745 279.716 327.037 292.041 C 341.33 304.365 347.008 327.539 373.321 333.614 C 399.633 339.69 414.742 345.877 414.742 345.877 C 414.742 345.877 339.723 288.531 333.333 250.363 C 326.943 212.195 335.868 207.022 350.889 231.804 C 365.911 256.586 368.238 270.76 389.305 279.855 C 410.372 288.951 421.202 285.372 421.202 285.372 C 421.202 285.372 391.219 279.577 364.459 211.07 C 337.698 142.564 296.05 95.046 252.035 94.801 C 208.02 94.556 185.056 97.142 157.079 123.892 Z"/>
</svg>